Coordinates
version=1
nRows=17
nColumns=36
inDegrees=yes

Units are S.I. units (second, meters, Newtons, ...)
If the header above contains a line with 'inDegrees', this indicates whether rotational values are in degrees (yes) or radians (no).

endheader
time	pelvis_tilt	pelvis_list	pelvis_rotation	pelvis_tx	pelvis_ty	pelvis_tz	hip_flexion_r	hip_adduction_r	hip_rotation_r	knee_angle_r	knee_angle_r_beta	ankle_angle_r	subtalar_angle_r	mtp_angle_r	hip_flexion_l	hip_adduction_l	hip_rotation_l	knee_angle_l	knee_angle_l_beta	ankle_angle_l	subtalar_angle_l	mtp_angle_l	lumbar_extension	lumbar_bending	lumbar_rotation	arm_flex_r	arm_add_r	arm_rot_r	elbow_flex_r	pro_sup_r	arm_flex_l	arm_add_l	arm_rot_l	elbow_flex_l	pro_sup_l
      1.45833330	     -2.53649153	     -1.03304071	      2.97856225	     -0.89772081	      1.30062069	     -0.09432991	      1.90161209	     -0.06639230	     -4.66179938	      6.47393394	      0.11299146	      4.15301355	    -15.73626453	     -7.49999987	      0.41335913	     -3.26789325	      4.77261535	      4.49582681	      0.07846698	      7.28235926	     -4.28662880	     -7.49999987	    -17.86586964	     -0.23183545	      1.99817503	     10.04794933	     -7.26965404	     28.69894415	     67.61741961	     76.95064775	     11.93086099	     -7.92676915	     34.71845664	     66.83363110	     79.47212091
      1.46250000	     -2.59773835	     -1.03541231	      2.95296497	     -0.89745524	      1.30022536	     -0.09482582	      2.03520466	     -0.07754501	     -4.52323330	      6.57484831	      0.11475275	      4.22821884	    -15.77626452	     -7.49999987	      0.49315150	     -3.24308350	      4.86934286	      4.52794037	      0.07902747	      7.31233763	     -4.35974942	     -7.49999987	    -17.96036239	     -0.18068046	      2.00349344	      9.93414321	     -7.13002694	     28.19407950	     66.96525343	     76.80164578	     11.88542613	     -7.78250019	     34.52363524	     66.13256044	     79.55507278
      1.46666670	     -2.66584085	     -1.05579748	      2.95881089	     -0.89704171	      1.30211993	     -0.09437549	      2.13433629	     -0.05733114	     -4.51495906	      6.63312607	      0.11576989	      4.09903875	    -15.91444580	     -7.49999987	      0.56132825	     -3.25016296	      4.94248512	      4.53911973	      0.07922258	      7.23392546	     -4.38370891	     -7.49999987	    -17.97699373	     -0.14949048	      1.97661900	      9.87837168	     -7.06338523	     27.62865056	     66.14126203	     76.33239179	     11.77544547	     -7.83599387	     34.26541010	     65.23860153	     79.31623143
      1.47083330	     -2.74297589	     -1.10234318	      2.98300581	     -0.89951096	      1.30290527	     -0.09404621	      2.28906009	     -0.00534894	     -4.43715650	      6.72205508	      0.11732199	      4.01547168	    -16.10587376	     -7.49999987	      0.71914110	     -3.28473595	      5.09089778	      4.60124479	      0.08030687	      7.14783305	     -4.59254587	     -7.49999987	    -18.08310945	     -0.07186615	      1.93267492	      9.91987098	     -6.95757285	     27.18237476	     65.30380548	     75.51843857	     11.79428791	     -7.79267940	     34.07981199	     64.32091557	     78.72931030
      1.47500000	     -2.88750809	     -1.12317453	      3.00487706	     -0.90096335	      1.29929251	     -0.09422177	      2.59987757	      0.02475373	     -4.21279006	      6.91872225	      0.12075448	      3.77445338	    -16.72256583	     -7.49999987	      1.03259406	     -3.30430134	      4.92422461	      4.76711585	      0.08320187	      7.38695683	     -4.18857307	     -7.49999987	    -18.19340476	     -0.03975453	      1.86886726	     10.06320248	     -6.76751025	     26.64757657	     64.49305085	     75.72091190	     11.74452467	     -7.68584491	     33.63443339	     63.57011535	     79.24654976
      1.47916670	     -3.04966590	     -1.13097060	      3.06963448	     -0.90092258	      1.29912937	     -0.09486450	      2.90851683	     -0.00519322	     -4.37257152	      7.10394637	      0.12398725	      3.79922028	    -16.79470299	     -7.49999987	      1.40763573	     -3.27823693	      5.10559142	      4.98172802	      0.08694756	      7.26853825	     -4.48107651	     -7.49999987	    -18.31538132	     -0.04824334	      2.11656272	      9.85708491	     -6.70951776	     25.55270091	     64.05443331	     78.60786953	     11.99081229	     -7.52804192	     33.46803427	     62.52759308	     85.98529050
      1.48333330	     -3.16363873	     -1.14428761	      3.12714461	     -0.90190406	      1.30209550	     -0.09391004	      3.15164090	     -0.00197546	     -4.43638286	      7.19219803	      0.12552754	      3.85415908	    -16.97072372	     -7.49999987	      1.71379053	     -3.27824500	      5.28487743	      5.14325211	      0.08976668	      7.27186728	     -4.38397819	     -7.49999987	    -18.50902563	     -0.03610096	      1.99404112	     10.01668711	     -6.53444494	     25.32997433	     63.21623525	     77.83185922	     11.96826391	     -7.54888316	     33.26847480	     61.76184121	     85.14085285
      1.48750000	     -3.24075035	     -1.18134326	      3.23653489	     -0.90162017	      1.30055761	     -0.09447031	      3.34041780	      0.03697746	     -4.48126494	      7.31998593	      0.12775786	      3.77077425	    -17.24667755	     -7.49999987	      1.98316586	     -3.29953138	      5.44906472	      5.32106504	      0.09287010	      7.26376852	     -4.39056851	     -7.49999987	    -18.69230890	     -0.00084310	      1.84504777	     10.00162345	     -6.42507282	     25.16993322	     62.55609584	     76.61738798	     11.89602648	     -7.54832376	     33.19918000	     61.13210485	     83.77673070
      1.49166670	     -3.33726398	     -1.20106501	      3.24077109	     -0.90084027	      1.29927817	     -0.09490301	      3.59499125	      0.03404384	     -4.45909306	      7.53887811	      0.13157824	      3.77921826	    -17.52475190	     -7.49999987	      2.23700031	     -3.30490023	      5.54702176	      5.53096806	      0.09653360	      7.36987770	     -4.38632177	     -7.49999987	    -18.79261022	      0.03475673	      1.79739443	      9.85776434	     -6.38266972	     24.89229936	     61.88450824	     75.61925429	     11.70798813	     -7.55183467	     33.09340842	     60.48314733	     82.68126733
      1.49583330	     -3.36424033	     -1.23593341	      3.24653570	     -0.90137499	      1.30013914	     -0.09397131	      3.70871331	      0.09605175	     -4.42123855	      7.62712801	      0.13311850	      3.80872902	    -17.57179982	     -7.49999987	      2.35300060	     -3.34823214	      5.61282010	      5.60615029	      0.09784578	      7.37978166	     -4.32673441	     -7.49999987	    -19.01588202	      0.07129754	      1.81267117	      9.77530800	     -6.45856269	     24.62533119	     61.43824026	     75.40811203	     11.50411731	     -7.65356257	     33.01906143	     60.04903527	     82.51873046
      1.50000000	     -3.33312394	     -1.27298061	      3.25719359	     -0.89910826	      1.30260322	     -0.09319891	      3.70070038	      0.17925659	     -4.28810817	      7.68277473	      0.13408971	      3.77586505	    -17.79390121	     -7.49999987	      2.32233618	     -3.41539566	      5.72845321	      5.70618592	      0.09959173	      7.36824964	     -4.29678868	     -7.49999987	    -19.17470136	      0.10702477	      1.80371916	      9.66623579	     -6.27524663	     24.09686726	     60.45118736	     74.61043552	     11.21208400	     -7.60614862	     32.71074730	     59.02207030	     81.70540495
      1.50416670	     -3.33638172	     -1.31681584	      3.31253701	     -0.89917212	      1.30215580	     -0.09405446	      3.68365679	      0.25953261	     -4.32583616	      7.65720398	      0.13364342	      4.07738230	    -17.56609605	     -7.49999987	      2.34064629	     -3.46308374	      5.90913889	      5.77493422	      0.10079162	      7.41968975	     -4.24430388	     -7.49999987	    -19.32283649	      0.16927896	      1.76924710	      9.50297351	     -6.24791708	     23.62392331	     59.57117204	     74.62928000	     11.03603601	     -7.58120858	     32.52495943	     57.99446993	     81.94461820
      1.50833330	     -3.42159376	     -1.35568813	      3.33726342	     -0.90003671	      1.30240379	     -0.09346412	      3.79479941	      0.32860539	     -4.20412463	      7.70692806	      0.13451127	      4.16884467	    -17.74874189	     -7.49999987	      2.50974868	     -3.52663980	      5.93376316	      5.91820778	      0.10329221	      7.54016622	     -4.11555467	     -7.49999987	    -19.39001774	      0.18326977	      1.96621380	      9.19193360	     -6.19702518	     22.69833771	     58.88384749	     76.22785505	     11.12122594	     -7.49113768	     32.47471078	     56.68605104	     85.51671782
      1.51250000	     -3.44178935	     -1.35859196	      3.41917219	     -0.90211591	      1.30410898	     -0.09589358	      3.83032320	      0.31262314	     -4.26865825	      7.71818529	      0.13470775	      4.30503380	    -17.63735040	     -7.49999987	      2.63537470	     -3.48691532	      6.12233508	      6.02663725	      0.10518466	      7.46745007	     -4.32873500	     -7.49999987	    -19.68476185	      0.24812381	      1.76619620	      9.18972110	     -6.17678542	     22.28151755	     58.14231010	     75.80114875	     10.93640307	     -7.39906808	     31.96204744	     55.89329619	     85.04988876
      1.51666670	     -3.44384353	     -1.35098107	      3.50506352	     -0.90202309	      1.30622098	     -0.09477895	      3.84561209	      0.30879464	     -4.23472654	      7.67983040	      0.13403833	      4.27900593	    -17.65769462	     -7.49999987	      2.74839555	     -3.46106302	      6.16993596	      6.20740485	      0.10833965	      7.37111140	     -4.47132218	     -7.49999987	    -20.03998083	      0.26918275	      1.61250960	      9.19684305	     -6.09778750	     21.92794123	     57.42850739	     75.20780479	     10.85179671	     -7.42952891	     31.65816870	     55.10725687	     84.33995057
      1.52083330	     -3.54544521	     -1.35686599	      3.56848169	     -0.90173304	      1.30258528	     -0.09397027	      3.99419027	      0.32172329	     -4.31005064	      7.71570725	      0.13466450	      4.52467743	    -17.47802848	     -7.49999987	      2.98788301	     -3.44390286	      6.29039901	      6.44565557	      0.11249791	      7.33540026	     -4.78987733	     -7.49999987	    -20.08427758	      0.29933662	      1.55719817	      9.22020846	     -6.01788700	     21.56335977	     56.35530295	     75.40943587	     10.86965413	     -7.40487434	     31.51596795	     53.89971691	     84.91405804
      1.52500000	     -3.52016623	     -1.37292317	      3.72488936	     -0.90267358	      1.30430087	     -0.09183224	      3.97541050	      0.38524252	     -4.32048553	      7.71861500	      0.13471525	      4.51061592	    -17.58935825	     -7.49999987	      3.14106968	     -3.47732866	      6.42564432	      6.74124590	      0.11765694	      7.31435421	     -4.91029300	     -7.49999987	    -20.49507974	      0.32624849	      1.39701446	      9.14106918	     -5.93367498	     21.03508235	     55.81740913	     74.98251802	     10.82525079	     -7.54548810	     31.13021098	     53.26664286	     84.43102944
